<svg width="512" height="512" viewBox="0 0 512 512" fill="none" xmlns="http://www.w3.org/2000/svg">
<path d="M338.805 364.118C334.015 372.465 329.559 380.161 324.494 388.91C321.894 385.219 320.049 382.974 318.607 380.496C303.529 354.595 288.681 328.559 273.364 302.801C269.776 296.768 270.335 292.272 273.763 286.368C310.876 222.433 347.729 158.347 384.521 94.2269C387.354 89.2902 390.035 85.9273 396.621 86.0012C428.264 86.3566 459.914 86.1879 491.561 86.2583C493.463 86.2625 495.365 86.7258 498.758 87.1712C496.505 91.3954 494.81 94.8227 492.896 98.1229C469.175 139.027 445.391 179.896 421.683 220.809C394.138 268.343 366.651 315.912 338.805 364.118Z" fill="#605FD1"/>
<path d="M307.613 426.632C277.413 426.637 248.093 426.426 218.78 426.801C211.871 426.89 207.997 424.639 204.55 418.659C165.302 350.566 125.785 282.629 86.3547 214.641C84.5884 211.596 82.9697 208.464 80.7979 204.486C84.469 204.14 86.6991 203.751 88.9299 203.747C120.246 203.7 151.564 203.819 182.879 203.595C188.583 203.555 191.737 205.437 194.649 210.525C220.119 255.032 245.949 299.332 271.649 343.706C286.502 369.353 301.319 395.021 316.127 420.694C316.779 421.825 317.185 423.097 318.328 425.747C314.608 426.081 311.551 426.356 307.613 426.632Z" fill="#605FD1"/>
<path d="M174.579 181.91C141.251 181.915 108.921 181.734 76.5965 182.069C69.7157 182.141 65.7372 179.915 62.3458 173.912C47.7637 148.098 32.7013 122.556 17.8633 96.8861C16.2601 94.1126 14.9771 91.154 13 87.1864C17.0763 86.8378 19.9322 86.3835 22.7886 86.3799C99.7757 86.2821 176.763 86.2538 253.75 86.1202C259.033 86.111 262.962 86.8067 265.981 92.261C280.819 119.075 296.172 145.605 311.287 172.267C312.693 174.747 313.699 177.454 315.739 181.907C267.899 181.907 221.739 181.907 174.579 181.91Z" fill="#605ED1"/>
</svg>
